<svg width="33" height="33" viewBox="0 0 33 33" fill="none" xmlns="http://www.w3.org/2000/svg">
<g clip-path="url(#clip0_32_54)">
<path fill-rule="evenodd" clip-rule="evenodd" d="M29.4815 26.6397C29.2109 26.6397 28.9982 26.4271 28.9982 26.1564V9.49212H24.8225C24.5518 9.49212 24.3392 9.27947 24.3392 9.00882C24.3392 8.73817 24.5518 8.52551 24.8225 8.52551H29.3269C29.6749 8.52551 29.9648 8.8155 29.9648 9.20214V26.1564C29.9648 26.4271 29.7522 26.6397 29.4815 26.6397ZM3.42179 26.6397C3.17047 26.6397 2.95782 26.4271 2.95782 26.1564V9.22147C2.95782 8.85416 3.2478 8.54484 3.61511 8.54484H8.1195C8.39015 8.54484 8.60281 8.7575 8.60281 9.02815C8.60281 9.2988 8.39015 9.51145 8.1195 9.51145H3.88576V26.1951C3.88576 26.4271 3.69244 26.6397 3.42179 26.6397Z" fill="white"/>
<path fill-rule="evenodd" clip-rule="evenodd" d="M29.9648 30.5835H2.95782C1.31459 30.5835 0 29.2496 0 27.6063V26.1951C0 25.9244 0.212654 25.7118 0.483304 25.7118H32.5167C32.7873 25.7118 33 25.9244 33 26.1951V27.6063C32.9613 29.2496 31.6274 30.5835 29.9648 30.5835ZM0.947276 26.6397V27.6063C0.947276 28.7276 1.85589 29.6362 2.95782 29.6362H29.9648C31.0668 29.6362 31.9947 28.7083 31.9947 27.6063V26.6397H0.947276Z" fill="white"/>
<path fill-rule="evenodd" clip-rule="evenodd" d="M23.9332 24.2812H8.97012C8.7188 24.2812 8.48682 24.0685 8.48682 23.7979C8.48682 23.5272 8.7188 23.3146 8.97012 23.3146H23.9332C24.2039 23.3146 24.4165 23.5272 24.4165 23.7979C24.4165 24.0685 24.2039 24.2812 23.9332 24.2812Z" fill="white"/>
<path fill-rule="evenodd" clip-rule="evenodd" d="M16.4903 20.8014C11.4253 20.8014 7.28822 16.6643 7.28822 11.5993C7.28822 6.53425 11.4253 2.4165 16.4903 2.4165C21.5554 2.4165 25.6731 6.53425 25.6731 11.5993C25.6538 16.6643 21.5554 20.8014 16.4903 20.8014ZM16.4903 3.34445C11.9279 3.34445 8.2355 7.05622 8.2355 11.5993C8.2355 16.1617 11.9279 19.8541 16.4903 19.8541C21.0334 19.8541 24.7452 16.1617 24.7452 11.5993C24.7065 7.05622 21.0141 3.34445 16.4903 3.34445Z" fill="white"/>
<path fill-rule="evenodd" clip-rule="evenodd" d="M17.6696 15.601C17.4763 15.601 17.283 15.4657 17.2056 15.2724L14.3445 6.80492C14.2671 6.57293 14.3831 6.30228 14.6344 6.22495C14.8664 6.12829 15.1371 6.26361 15.2144 6.51493L18.1142 14.9824C18.1916 15.2144 18.0562 15.4851 17.8243 15.5624C17.7663 15.5817 17.7083 15.601 17.6696 15.601Z" fill="white"/>
<path fill-rule="evenodd" clip-rule="evenodd" d="M11.9086 15.601C11.8506 15.601 11.7926 15.601 11.7346 15.5624C11.5026 15.4851 11.3673 15.2144 11.4446 14.9824L14.3058 6.51493C14.3831 6.26361 14.6538 6.12829 14.9051 6.22495C15.1371 6.30228 15.2724 6.57293 15.1951 6.80492L12.3339 15.2724C12.2759 15.4657 12.0826 15.601 11.9086 15.601Z" fill="white"/>
<path fill-rule="evenodd" clip-rule="evenodd" d="M16.4903 12.0826H13.1072C12.8365 12.0826 12.6239 11.8699 12.6239 11.5993C12.6239 11.3286 12.8365 11.116 13.1072 11.116H16.4903C16.761 11.116 16.9736 11.3286 16.9736 11.5993C16.9736 11.8699 16.7223 12.0826 16.4903 12.0826Z" fill="white"/>
<path fill-rule="evenodd" clip-rule="evenodd" d="M20.4148 15.6011C20.1634 15.6011 19.9314 15.3884 19.9314 15.1178V6.6503C19.9314 6.37965 20.1634 6.16699 20.4148 6.16699C20.6854 6.16699 20.8981 6.37965 20.8981 6.6503V15.1178C20.8981 15.3884 20.6854 15.6011 20.4148 15.6011Z" fill="white"/>
<path fill-rule="evenodd" clip-rule="evenodd" d="M21.5747 7.13356H19.2742C19.0035 7.13356 18.7909 6.9209 18.7909 6.66958C18.7909 6.4376 19.0035 6.18628 19.2742 6.18628H21.5747C21.8453 6.18628 22.058 6.39893 22.058 6.66958C22.058 6.94023 21.8453 7.13356 21.5747 7.13356Z" fill="white"/>
<path fill-rule="evenodd" clip-rule="evenodd" d="M21.5747 15.6011H19.2742C19.0035 15.6011 18.7909 15.3885 18.7909 15.1178C18.7909 14.8472 19.0035 14.6345 19.2742 14.6345H21.5747C21.8453 14.6345 22.058 14.8472 22.058 15.1178C22.058 15.3885 21.8453 15.6011 21.5747 15.6011Z" fill="white"/>
<path fill-rule="evenodd" clip-rule="evenodd" d="M19.9895 28.6309H12.9139C12.6432 28.6309 12.4306 28.4183 12.4306 28.1476C12.4306 27.877 12.6432 27.6643 12.9139 27.6643H19.9895C20.2601 27.6643 20.4728 27.877 20.4728 28.1476C20.4728 28.4183 20.2601 28.6309 19.9895 28.6309Z" fill="white"/>
</g>
<defs>
<clipPath id="clip0_32_54">
<rect width="33" height="33" fill="white"/>
</clipPath>
</defs>
</svg>
