<svg width="33" height="33" viewBox="0 0 33 33" fill="none" xmlns="http://www.w3.org/2000/svg">
<g clip-path="url(#clip0_32_384)">
<path d="M15.6728 10.1331H15.7194C17.2118 10.0227 18.6933 9.79499 20.15 9.45204C20.438 9.37695 20.6113 9.08333 20.5377 8.79493C20.4642 8.50654 20.1716 8.33168 19.8828 8.40362C18.4836 8.7314 17.0607 8.94846 15.6274 9.05279C15.3286 9.06534 15.0966 9.31772 15.1091 9.6165C15.1217 9.91528 15.3741 10.1473 15.6728 10.1348V10.1331Z" fill="white"/>
<path d="M2.70492 6.76226C3.00369 6.76226 3.2459 6.52006 3.2459 6.22128C3.2459 5.9225 3.00369 5.6803 2.70492 5.6803C2.40614 5.6803 2.16393 5.9225 2.16393 6.22128C2.16393 6.52006 2.40614 6.76226 2.70492 6.76226Z" fill="white"/>
<path d="M2.70492 7.84424C2.40614 7.84424 2.16393 8.08644 2.16393 8.38522V9.46719C2.16393 9.76597 2.40614 10.0082 2.70492 10.0082C3.00369 10.0082 3.2459 9.76597 3.2459 9.46719V8.38522C3.2459 8.08644 3.00369 7.84424 2.70492 7.84424Z" fill="white"/>
<path d="M2.70492 13.7951C3.00369 13.7951 3.2459 13.5529 3.2459 13.2541C3.2459 12.9553 3.00369 12.7131 2.70492 12.7131C2.40614 12.7131 2.16393 12.9553 2.16393 13.2541C2.16393 13.5529 2.40614 13.7951 2.70492 13.7951Z" fill="white"/>
<path d="M2.70492 14.8771C2.40614 14.8771 2.16393 15.1193 2.16393 15.4181V16.5C2.16393 16.7988 2.40614 17.041 2.70492 17.041C3.00369 17.041 3.2459 16.7988 3.2459 16.5V15.4181C3.2459 15.1193 3.00369 14.8771 2.70492 14.8771Z" fill="white"/>
<path d="M2.70492 20.8279C3.00369 20.8279 3.2459 20.5857 3.2459 20.287C3.2459 19.9882 3.00369 19.746 2.70492 19.746C2.40614 19.746 2.16393 19.9882 2.16393 20.287C2.16393 20.5857 2.40614 20.8279 2.70492 20.8279Z" fill="white"/>
<path d="M2.70492 21.9099C2.40614 21.9099 2.16393 22.1521 2.16393 22.4509V23.5329C2.16393 23.8316 2.40614 24.0738 2.70492 24.0738C3.00369 24.0738 3.2459 23.8316 3.2459 23.5329V22.4509C3.2459 22.1521 3.00369 21.9099 2.70492 21.9099Z" fill="white"/>
<path d="M28.0862 20.565C27.6027 17.7846 25.4802 15.5759 22.7213 14.982V2.97543C22.7213 0.301344 11.8243 0.270508 11.3607 0.270508C10.897 0.270508 0 0.301344 0 2.97543V24.6148C0 25.7211 1.82961 26.5115 5.43256 26.968C5.41795 27.1347 5.40984 27.3035 5.40984 27.4739C5.40984 30.3719 7.59974 32.7295 10.2911 32.7295H26.7717C29.9245 32.7295 32.4898 29.9646 32.4898 26.5623C32.5653 23.7917 30.7523 21.3226 28.0862 20.565ZM21.609 14.8771C19.4421 14.8944 17.4293 16.0009 16.2533 17.8211C14.8669 17.526 13.4203 17.8287 12.2684 18.6548C11.9709 18.6591 11.669 18.6639 11.3607 18.6639C4.98787 18.6639 1.35246 17.6177 1.08197 17.0242V11.286C3.84585 12.692 10.9868 12.7131 11.3607 12.7131C11.7345 12.7131 18.8755 12.692 21.6393 11.286V14.8771C21.6291 14.8771 21.6193 14.8771 21.609 14.8771ZM21.6393 9.98765C21.3829 10.58 17.747 11.6312 11.3607 11.6312C4.95703 11.6312 1.31729 10.5741 1.08197 10.0082V4.25323C3.84585 5.65925 10.9868 5.68034 11.3607 5.68034C11.7345 5.68034 18.8755 5.65925 21.6393 4.25323V9.98765ZM11.3607 1.35247C17.6712 1.35247 21.2985 2.38034 21.6307 2.97543C21.2985 3.57051 17.6712 4.59838 11.3607 4.59838C4.97705 4.59838 1.33839 3.54725 1.08197 3.00626V2.99598C1.33839 2.40361 4.97705 1.35247 11.3607 1.35247ZM1.08197 24.5975V18.3188C3.60295 19.6015 9.76205 19.7318 11.1086 19.7459C10.5246 20.4715 10.1187 21.3238 9.92326 22.2344C7.87192 22.4515 6.16673 23.9107 5.63543 25.9039C2.24075 25.4766 1.19016 24.8171 1.08197 24.5975ZM26.7717 31.6476H10.2911C8.1959 31.6476 6.4918 29.7752 6.4918 27.4739C6.4918 25.1725 8.1959 23.3002 10.2911 23.3002H10.369H10.3793C10.6493 23.3 10.8779 23.1008 10.9149 22.8333C11.2335 20.5293 13.0788 18.7916 15.2033 18.7916C15.591 18.7916 15.9766 18.8483 16.348 18.9599C16.5862 19.0313 16.8425 18.9311 16.969 18.717C17.9132 17.0359 19.6812 15.9851 21.609 15.959C24.314 15.959 26.6662 18.1657 27.0773 21.0913C27.1097 21.3231 27.2874 21.5077 27.5177 21.549C29.7719 21.9504 31.4079 24.0603 31.4079 26.565C31.4079 29.3678 29.3283 31.6476 26.7717 31.6476Z" fill="white"/>
</g>
<defs>
<clipPath id="clip0_32_384">
<rect width="33" height="33" fill="white"/>
</clipPath>
</defs>
</svg>
