<svg width="33" height="33" viewBox="0 0 33 33" fill="none" xmlns="http://www.w3.org/2000/svg">
<path d="M7.32703 6.24938C7.48172 6.24938 7.64156 6.19266 7.76531 6.07922C10.1269 3.90328 13.1948 2.70703 16.4072 2.70703C19.6144 2.70703 22.6823 3.90328 25.0439 6.07922C25.3069 6.32156 25.7142 6.30609 25.9566 6.04313C26.1989 5.78016 26.1783 5.37281 25.9205 5.13047C23.3217 2.73797 19.9444 1.41797 16.4072 1.41797C12.87 1.41797 9.49266 2.73797 6.89391 5.13563C6.63094 5.37797 6.61547 5.78531 6.85781 6.04828C6.98156 6.18234 7.15688 6.24938 7.32703 6.24938Z" fill="white"/>
<path d="M23.4094 8.80688C23.6517 8.54391 23.6311 8.13657 23.3733 7.89422C21.4706 6.1411 18.9956 5.17688 16.4072 5.17688C13.8188 5.17688 11.3438 6.1411 9.44109 7.89938C9.17813 8.14172 9.16266 8.54907 9.405 8.81204C9.53391 8.95126 9.70406 9.01829 9.87938 9.01829C10.0341 9.01829 10.1939 8.96157 10.3177 8.84813C11.9831 7.31157 14.1436 6.4711 16.4072 6.4711C18.6708 6.4711 20.8313 7.31672 22.4967 8.84813C22.7597 9.08532 23.167 9.06985 23.4094 8.80688Z" fill="white"/>
<path d="M20.8209 10.6631C19.6144 9.54939 18.0469 8.93579 16.402 8.93579C14.7572 8.93579 13.1897 9.54939 11.9831 10.6631C11.7202 10.9055 11.7047 11.3128 11.947 11.5758C12.1894 11.8388 12.5967 11.8542 12.8597 11.6119C13.8291 10.7199 15.0872 10.23 16.402 10.23C17.7169 10.23 18.975 10.7199 19.9444 11.6119C20.0681 11.7253 20.2228 11.782 20.3827 11.782C20.558 11.782 20.7281 11.7099 20.857 11.5758C21.0994 11.3077 21.0839 10.9003 20.8209 10.6631Z" fill="white"/>
<path d="M19.9495 21.3933C18.9802 22.2853 17.722 22.7751 16.4072 22.7751C15.0923 22.7751 13.8342 22.2853 12.8648 21.3933C12.6019 21.1509 12.1945 21.1664 11.9522 21.4293C11.7098 21.6923 11.7253 22.0997 11.9883 22.342C13.1948 23.4558 14.7675 24.0693 16.4072 24.0693C18.0469 24.0693 19.6195 23.4558 20.8261 22.342C21.0891 22.0997 21.1045 21.6923 20.8622 21.4293C20.6198 21.1664 20.2125 21.1509 19.9495 21.3933Z" fill="white"/>
<path d="M19.6195 16.5C19.6195 14.7262 18.1758 13.2825 16.402 13.2825C14.6283 13.2825 13.1845 14.7262 13.1845 16.5C13.1845 18.2737 14.6283 19.7175 16.402 19.7175C18.1758 19.7175 19.6195 18.2737 19.6195 16.5ZM14.4736 16.5C14.4736 15.4378 15.3398 14.5715 16.402 14.5715C17.4642 14.5715 18.3305 15.4378 18.3305 16.5C18.3305 17.5622 17.4642 18.4284 16.402 18.4284C15.3398 18.4284 14.4736 17.5622 14.4736 16.5Z" fill="white"/>
<path d="M10.1578 19.0729V13.927C10.1578 13.5712 9.86906 13.2825 9.51328 13.2825C9.1575 13.2825 8.86875 13.5712 8.86875 13.927V19.0729C8.86875 19.4287 9.1575 19.7175 9.51328 19.7175C9.86906 19.7175 10.1578 19.4287 10.1578 19.0729Z" fill="white"/>
<path d="M26.5598 13.2825H21.4139C21.0581 13.2825 20.7694 13.5712 20.7694 13.927C20.7694 14.2828 21.0581 14.5715 21.4139 14.5715H23.3423V19.0729C23.3423 19.4287 23.6311 19.7175 23.9869 19.7175C24.3427 19.7175 24.6314 19.4287 24.6314 19.0729V14.5715H26.5598C26.9156 14.5715 27.2044 14.2828 27.2044 13.927C27.2044 13.5712 26.9156 13.2825 26.5598 13.2825Z" fill="white"/>
<path d="M25.0439 26.9208C22.6823 29.0967 19.6144 30.293 16.4072 30.293C13.2 30.293 10.132 29.0967 7.77047 26.9208C7.5075 26.6784 7.10016 26.6991 6.85781 26.9569C6.61547 27.2198 6.63094 27.6272 6.89391 27.8695C9.49266 30.262 12.87 31.582 16.4072 31.582C19.9444 31.582 23.3217 30.262 25.9205 27.8644C26.1834 27.622 26.1989 27.2147 25.9566 26.9517C25.7142 26.6939 25.3069 26.6784 25.0439 26.9208Z" fill="white"/>
<path d="M16.402 27.8232C18.9905 27.8232 21.4655 26.859 23.3681 25.1007C23.6311 24.8583 23.6466 24.451 23.4042 24.188C23.1619 23.925 22.7545 23.9096 22.4916 24.1519C20.8261 25.6885 18.6656 26.529 16.402 26.529C14.1384 26.529 11.978 25.6833 10.3125 24.1519C10.0495 23.9096 9.64219 23.9302 9.39984 24.188C9.1575 24.451 9.17297 24.8583 9.43594 25.1007C11.3438 26.859 13.8188 27.8232 16.402 27.8232Z" fill="white"/>
</svg>
