<svg width="33" height="33" viewBox="0 0 33 33" fill="none" xmlns="http://www.w3.org/2000/svg">
<g clip-path="url(#clip0_32_416)">
<path fill-rule="evenodd" clip-rule="evenodd" d="M29.3577 27.5724H3.64252C1.63428 27.5724 0.000389099 25.9385 0.000389099 23.9301V23.0549C0.000389099 22.4828 0.465807 22.017 1.03815 22.017H31.9622C32.5344 22.017 33 22.4828 33 23.0549V23.9301C33 25.9387 31.3661 27.5724 29.3579 27.5724H29.3577ZM1.03815 22.7908C0.892359 22.7908 0.77383 22.9093 0.77383 23.0551V23.9303C0.77383 25.512 2.06083 26.799 3.64252 26.799L29.3577 26.7988C30.9394 26.7988 32.2264 25.5118 32.2264 23.9301V23.0547C32.2264 22.9089 32.1082 22.7904 31.9624 22.7904L1.03815 22.7906V22.7908Z" fill="white"/>
<path fill-rule="evenodd" clip-rule="evenodd" d="M29.4039 22.7908C29.1904 22.7908 29.0172 22.6173 29.0172 22.4041V7.10346C29.0172 6.60576 28.6125 6.20105 28.1151 6.20105H4.88544C4.38773 6.20105 3.98303 6.60576 3.98303 7.10346V22.4037C3.98303 22.6171 3.80978 22.7904 3.59631 22.7904C3.38284 22.7904 3.20959 22.6169 3.20959 22.4037V7.10346C3.20959 6.1794 3.96137 5.42761 4.88544 5.42761H28.1148C29.0386 5.42761 29.7906 6.1792 29.7906 7.10346V22.4037C29.7906 22.6171 29.6174 22.7908 29.4039 22.7908Z" fill="white"/>
<path fill-rule="evenodd" clip-rule="evenodd" d="M19.2248 25.182H13.7754C13.5878 25.182 13.4269 25.0469 13.3946 24.8622L12.9754 22.4709C12.9387 22.2603 13.0791 22.06 13.2896 22.0231C13.5004 21.9836 13.7005 22.1267 13.7373 22.3371L14.1004 24.4084H18.9004L19.2637 22.3371C19.3004 22.1265 19.4998 21.9834 19.7113 22.0231C19.9217 22.0598 20.0623 22.2601 20.0253 22.4709L19.6061 24.8622C19.5733 25.047 19.4128 25.182 19.2248 25.182Z" fill="white"/>
<path fill-rule="evenodd" clip-rule="evenodd" d="M4.92276 25.1816H2.63028C2.41681 25.1816 2.24356 25.0082 2.24356 24.7949C2.24356 24.5816 2.41681 24.4082 2.63028 24.4082H4.92276C5.13623 24.4082 5.30948 24.5816 5.30948 24.7949C5.30948 25.0082 5.13662 25.1816 4.92276 25.1816Z" fill="white"/>
<path fill-rule="evenodd" clip-rule="evenodd" d="M30.3697 25.1816H28.0771C27.8636 25.1816 27.6903 25.0082 27.6903 24.7949C27.6903 24.5816 27.8638 24.4082 28.0771 24.4082H30.3697C30.5832 24.4082 30.7564 24.5816 30.7564 24.7949C30.7564 25.0082 30.5832 25.1816 30.3697 25.1816Z" fill="white"/>
<path fill-rule="evenodd" clip-rule="evenodd" d="M17.2941 20.3107H15.7059C15.218 20.3107 14.8211 19.9136 14.8211 19.4259V18.4746C14.7466 18.4461 14.6731 18.4152 14.6002 18.3829L13.9277 19.0558C13.594 19.3888 13.01 19.3888 12.6763 19.0558L11.5529 17.9324C11.2081 17.5872 11.2081 17.0259 11.5529 16.6812L12.2256 16.0085C12.1931 15.9358 12.1627 15.8621 12.1341 15.7876H11.183C10.6953 15.7876 10.2984 15.3907 10.2984 14.9028V13.3148C10.2984 12.8269 10.6953 12.4299 11.183 12.4299H12.1343C12.1627 12.3559 12.1935 12.282 12.226 12.2091L11.5533 11.5362C11.3864 11.3697 11.2946 11.1474 11.2946 10.9105C11.2946 10.6737 11.3864 10.4515 11.5533 10.2848L12.6763 9.16177C13.01 8.82822 13.5942 8.82861 13.9277 9.16177L14.6004 9.83466C14.6731 9.80218 14.7468 9.77182 14.8209 9.74301V8.79168C14.8209 8.30383 15.2178 7.90686 15.7057 7.90686H17.2937C17.7814 7.90686 18.1786 8.30383 18.1786 8.79168V9.74301C18.2524 9.77143 18.3263 9.80218 18.399 9.83466L19.0717 9.16196C19.4045 8.82841 19.9894 8.82803 20.3231 9.16196L21.4462 10.285C21.7909 10.6301 21.7909 11.1913 21.4462 11.5364L20.7735 12.2089C20.8057 12.2816 20.8361 12.3553 20.8651 12.4297H21.8164C22.3041 12.4297 22.7013 12.8269 22.7013 13.3146V14.9026C22.7013 15.3905 22.3041 15.7874 21.8164 15.7874H20.8649C20.8365 15.8615 20.8057 15.9352 20.7736 16.0079L21.4463 16.6806C21.7911 17.0257 21.7911 17.587 21.4463 17.932L20.3233 19.055C19.9898 19.3886 19.4054 19.3886 19.0719 19.055L18.3992 18.3823C18.3265 18.4146 18.2528 18.4452 18.1788 18.474V19.4253C18.1791 19.9132 17.782 20.3101 17.2943 20.3101L17.2941 20.3107ZM14.5212 17.5288C14.5821 17.5288 14.6434 17.5433 14.7 17.5729C14.8992 17.6768 15.109 17.7638 15.3246 17.832C15.4854 17.8829 15.5945 18.0322 15.5945 18.2008V19.4263C15.5945 19.4866 15.6455 19.5375 15.7059 19.5375H17.2941C17.3547 19.5375 17.4053 19.4866 17.4053 19.4263V18.2008C17.4053 18.0322 17.5146 17.8829 17.6756 17.832C17.8912 17.7638 18.1014 17.677 18.3006 17.5729C18.4498 17.4952 18.6328 17.523 18.7528 17.6423L19.6197 18.509C19.6754 18.5651 19.7214 18.5651 19.7771 18.509L20.9001 17.386C20.9428 17.3434 20.9428 17.2711 20.9001 17.2286L20.0333 16.3617C19.914 16.2424 19.8857 16.0593 19.9639 15.9095C20.0683 15.7091 20.1553 15.4991 20.223 15.2849C20.2734 15.1238 20.4227 15.0146 20.5917 15.0146H21.817C21.8775 15.0146 21.9282 14.9635 21.9282 14.9032L21.9284 13.3151C21.9284 13.2548 21.8775 13.2034 21.8172 13.2034L20.5917 13.2036C20.4231 13.2036 20.2734 13.0943 20.223 12.9333C20.1551 12.7182 20.0679 12.5083 19.964 12.3089C19.8859 12.159 19.9138 11.9759 20.0335 11.8566L20.9003 10.99C20.943 10.9473 20.943 10.8751 20.9003 10.8324L19.7771 9.70936C19.7212 9.65329 19.675 9.65406 19.6199 9.70936L18.753 10.5762C18.6332 10.6957 18.4508 10.7237 18.3008 10.6456C18.1003 10.5412 17.8899 10.4538 17.6762 10.3867C17.5153 10.3358 17.4059 10.1866 17.4059 10.0178V8.79245C17.4059 8.73212 17.3552 8.68107 17.2947 8.68107H15.7065C15.6461 8.68107 15.5951 8.73212 15.5951 8.79245V10.018C15.5951 10.1866 15.4854 10.3359 15.3248 10.3869C15.1107 10.4542 14.9007 10.5416 14.7004 10.6458C14.5507 10.7243 14.3674 10.6957 14.2481 10.5764L13.3813 9.70956C13.3256 9.65426 13.2798 9.65368 13.2237 9.70956L12.1007 10.8324C12.0728 10.8602 12.0688 10.8939 12.0688 10.9115C12.0688 10.9289 12.0728 10.9621 12.1007 10.9902L12.9675 11.857C13.0868 11.9763 13.115 12.1594 13.0367 12.3093C12.9325 12.5094 12.8453 12.7194 12.7776 12.9338C12.727 13.0947 12.5775 13.204 12.4089 13.204H11.1838C11.1234 13.204 11.0724 13.255 11.0724 13.3153V14.9034C11.0724 14.9639 11.1234 15.0148 11.1838 15.0148H12.4091C12.5777 15.0148 12.7272 15.124 12.7778 15.2851C12.8455 15.4997 12.9329 15.7099 13.0367 15.9096C13.1148 16.0595 13.0866 16.2422 12.9671 16.3619L12.1003 17.2286C12.0576 17.2709 12.0576 17.3434 12.1003 17.3861L13.2235 18.5092C13.2788 18.5645 13.3252 18.5651 13.3811 18.5092L14.2477 17.642C14.3226 17.5681 14.4218 17.5288 14.5219 17.5288H14.5212Z" fill="white"/>
<path fill-rule="evenodd" clip-rule="evenodd" d="M16.5 17.3832C14.6948 17.3832 13.2262 15.9144 13.2262 14.1094C13.2262 12.3042 14.695 10.8354 16.5 10.8354C18.3052 10.8354 19.774 12.3042 19.774 14.1094C19.774 15.9144 18.3052 17.3832 16.5 17.3832ZM16.5 11.6087C15.1212 11.6087 13.9997 12.7306 13.9997 14.109C13.9997 15.4879 15.1215 16.6096 16.5 16.6096C17.8789 16.6096 19.0005 15.4877 19.0005 14.109C19.0005 12.7302 17.8789 11.6087 16.5 11.6087Z" fill="white"/>
</g>
<defs>
<clipPath id="clip0_32_416">
<rect width="33" height="33" fill="white"/>
</clipPath>
</defs>
</svg>
