<svg width="33" height="33" viewBox="0 0 33 33" fill="none" xmlns="http://www.w3.org/2000/svg">
<g clip-path="url(#clip0_32_328)">
<path d="M13.7573 2.20642C7.38081 2.20642 2.21167 7.37556 2.21167 13.752C2.21167 20.1285 7.38081 25.2977 13.7573 25.2977C20.1338 25.2977 25.3029 20.1285 25.3029 13.752C25.296 7.37845 20.1309 2.21336 13.7573 2.20642ZM13.7573 3.306C17.1534 3.30868 20.3358 4.96383 22.2879 7.74282L20.9134 9.1173C20.5789 8.91491 20.196 8.8066 19.805 8.80392C18.5904 8.80392 17.6058 9.78853 17.6058 11.0031C17.6078 11.3945 17.7154 11.778 17.9176 12.1131L14.3175 15.7131C13.6359 15.2975 12.7791 15.2975 12.0975 15.7131L9.59702 13.2127C9.79914 12.8776 9.90683 12.4941 9.90875 12.1027C9.91026 10.8905 8.92889 9.90666 7.71673 9.90515C6.71426 9.90391 5.83837 10.582 5.58849 11.5529H3.54876C4.58972 6.74584 8.83886 3.31322 13.7573 3.306ZM20.9046 11.0031C20.9046 11.6104 20.4123 12.1027 19.805 12.1027C19.1977 12.1027 18.7054 11.6104 18.7054 11.0031C18.7054 10.3958 19.1977 9.9035 19.805 9.9035C20.4123 9.9035 20.9046 10.3958 20.9046 11.0031ZM14.3071 17.6006C14.3071 18.2079 13.8148 18.7002 13.2075 18.7002C12.6002 18.7002 12.1079 18.2079 12.1079 17.6006C12.1079 16.9933 12.6002 16.501 13.2075 16.501C13.8148 16.501 14.3071 16.9933 14.3071 17.6006ZM8.80917 12.1027C8.80917 12.71 8.3169 13.2023 7.70959 13.2023C7.10227 13.2023 6.61 12.71 6.61 12.1027C6.61 11.4954 7.10227 11.0031 7.70959 11.0031C8.3169 11.0031 8.80917 11.4954 8.80917 12.1027ZM18.8328 22.8859C17.2802 23.7479 15.5333 24.1996 13.7573 24.198C7.99204 24.2019 3.31517 19.5315 3.31125 13.7663C3.31098 13.3942 3.33063 13.0223 3.37008 12.6524H5.58849C5.83844 13.6204 6.70986 14.298 7.70959 14.3018C8.10097 14.2998 8.48452 14.1922 8.81961 13.99L11.3201 16.4905C11.1179 16.8256 11.0103 17.2091 11.0083 17.6005C11.0083 18.8151 11.9929 19.7997 13.2075 19.7997C14.4221 19.7997 15.4067 18.8151 15.4067 17.6005C15.4047 17.2091 15.2971 16.8256 15.0949 16.4905L18.695 12.8905C19.0301 13.0926 19.4136 13.2003 19.805 13.2022C21.0196 13.2022 22.0042 12.2176 22.0042 11.003C22.0022 10.6116 21.8945 10.2281 21.6924 9.89299L22.891 8.69499C25.6891 13.7344 23.8722 20.0878 18.8328 22.8859Z" fill="white"/>
<path d="M27.5021 5.50517C28.5018 5.50139 29.3732 4.82384 29.6232 3.8558H33V2.75622H29.6232C29.3732 1.78817 28.5018 1.11062 27.5021 1.10684C26.2875 1.10684 25.3029 2.09145 25.3029 3.30601C25.3048 3.69739 25.4125 4.08094 25.6147 4.41604L24.6487 5.38202C20.0266 -0.639639 11.3982 -1.77427 5.37655 2.84776C-0.64511 7.46979 -1.77974 16.0983 2.84229 22.1199C7.20516 27.8039 15.2026 29.1827 21.2169 25.2878L22.8761 26.947L23.6535 27.7244L28.0794 32.1503C29.205 33.2759 31.0299 33.2759 32.1555 32.1503C33.2812 31.0246 33.2812 29.1997 32.1555 28.0741L27.7297 23.6483L26.9523 22.8709L25.293 21.2116C28.2385 16.6747 28.2385 10.8294 25.293 6.29248L26.3926 5.19289C26.7275 5.39508 27.1109 5.50297 27.5021 5.50517ZM27.5021 2.20642C28.1094 2.20642 28.6017 2.69869 28.6017 3.30601C28.6017 3.91332 28.1094 4.40559 27.5021 4.40559C26.8948 4.40559 26.4025 3.91332 26.4025 3.30601C26.4025 2.69869 26.8948 2.20642 27.5021 2.20642ZM31.3781 28.8515C32.0823 29.5399 32.0951 30.6687 31.4068 31.3729C30.7184 32.077 29.5896 32.0899 28.8854 31.4015C28.8757 31.3921 28.8663 31.3826 28.8568 31.3729L24.4309 26.947L26.9523 24.4257L31.3781 28.8515ZM26.1749 23.6483L23.6535 26.1696L22.1317 24.6478C22.2092 24.5884 22.2818 24.523 22.3582 24.462C22.4347 24.401 22.5232 24.3278 22.6051 24.2591C22.7255 24.158 22.8443 24.0557 22.9608 23.9507C23.0207 23.8957 23.0779 23.8407 23.1367 23.7857C23.3622 23.5746 23.5804 23.3564 23.7915 23.1309C23.8465 23.0721 23.9015 23.0149 23.9565 22.955C24.0615 22.8385 24.1638 22.7197 24.2649 22.5993C24.3338 22.5179 24.4015 22.4357 24.4678 22.3524C24.5283 22.2766 24.5937 22.204 24.6531 22.1265L26.1749 23.6483ZM24.0428 21.0945C23.8696 21.3364 23.6909 21.5734 23.5024 21.8015C23.4474 21.8681 23.3885 21.9324 23.3319 21.9978C23.1637 22.1935 22.9899 22.3834 22.8107 22.5674C22.7326 22.648 22.6533 22.7274 22.5727 22.8055C22.3894 22.9847 22.1996 23.1584 22.0031 23.3267C21.9376 23.3816 21.8733 23.4416 21.8068 23.4971C21.5786 23.6857 21.3417 23.8644 21.0998 24.0375C15.4083 28.1036 7.49826 26.786 3.43221 21.0945C-0.633839 15.4031 0.683805 7.49301 6.37525 3.42696C12.0667 -0.63909 19.9767 0.678486 24.0428 6.37C27.189 10.774 27.189 16.6905 24.0428 21.0945Z" fill="white"/>
</g>
<defs>
<clipPath id="clip0_32_328">
<rect width="33" height="33" fill="white"/>
</clipPath>
</defs>
</svg>
