<svg width="33" height="33" viewBox="0 0 33 33" fill="none" xmlns="http://www.w3.org/2000/svg">
<path d="M16.5165 7.48116C14.2554 7.48465 12.0881 8.38462 10.4896 9.98374C8.89106 11.5829 7.99192 13.7506 7.9893 16.0117C7.9893 21.5062 12.0318 21.8428 12.0318 24.8788L11.8998 27.4396C11.9128 28.4778 12.333 29.4694 13.07 30.2008C13.8069 30.9322 14.8017 31.3449 15.84 31.3501H17.1864C18.2238 31.3501 19.2188 30.9382 19.9527 30.2049C20.6866 29.4716 21.0993 28.477 21.1002 27.4396C21.1002 26.6311 21.0012 25.8226 21.0012 25.0108C21.1002 21.8098 25.0107 21.1366 25.0107 16.0117C25.0107 13.7555 24.117 11.5912 22.525 9.99248C20.9331 8.39374 18.7726 7.49076 16.5165 7.48116ZM30.7758 15.6421H27.4758C27.3979 15.6376 27.32 15.649 27.2467 15.6756C27.1734 15.7023 27.1063 15.7436 27.0495 15.797C26.9927 15.8504 26.9473 15.9148 26.9162 15.9863C26.8851 16.0579 26.8689 16.135 26.8686 16.213C26.8673 16.2932 26.8819 16.373 26.9116 16.4476C26.9414 16.5222 26.9856 16.5902 27.0417 16.6476C27.0979 16.7049 27.1649 16.7506 27.2388 16.782C27.3128 16.8133 27.3922 16.8296 27.4725 16.8301H30.7725C30.9307 16.824 31.08 16.7558 31.1882 16.6403C31.2963 16.5247 31.3545 16.3712 31.35 16.213C31.3504 16.1376 31.3359 16.0629 31.3071 15.9932C31.2784 15.9235 31.2361 15.8603 31.1826 15.8071C31.1292 15.754 31.0657 15.712 30.9958 15.6837C30.926 15.6553 30.8512 15.6412 30.7758 15.6421ZM5.5605 15.7741H2.2605C2.18221 15.7696 2.10383 15.7811 2.03013 15.8079C1.95643 15.8347 1.88896 15.8762 1.83184 15.9299C1.77472 15.9837 1.72913 16.0485 1.69787 16.1204C1.66661 16.1923 1.65032 16.2698 1.65 16.3483C1.65 16.5093 1.71397 16.6637 1.82785 16.7776C1.94172 16.8915 2.09616 16.9555 2.2572 16.9555H5.5572C5.71302 16.9486 5.86006 16.8814 5.96723 16.7681C6.07439 16.6548 6.13327 16.5042 6.1314 16.3483C6.13184 16.2727 6.11729 16.1979 6.08858 16.128C6.05988 16.0581 6.01761 15.9947 5.9642 15.9413C5.91079 15.8879 5.84732 15.8456 5.77746 15.8169C5.70759 15.7882 5.63273 15.7736 5.5572 15.7741H5.5605ZM17.7705 27.0337H15.2691C15.1124 27.0337 14.9622 27.0959 14.8514 27.2067C14.7406 27.3174 14.6784 27.4677 14.6784 27.6244C14.6784 27.781 14.7406 27.9313 14.8514 28.042C14.9622 28.1528 15.1124 28.2151 15.2691 28.2151H17.7639C17.9206 28.2151 18.0708 28.1528 18.1816 28.042C18.2924 27.9313 18.3546 27.781 18.3546 27.6244C18.3546 27.4677 18.2924 27.3174 18.1816 27.2067C18.0708 27.0959 17.9206 27.0337 17.7639 27.0337H17.7705ZM16.5231 14.3947C16.0364 14.3911 15.5681 14.5804 15.2206 14.9211C14.8731 15.2619 14.6746 15.7263 14.6685 16.213C14.6659 16.7087 14.8593 17.1854 15.2068 17.539C15.5542 17.8926 16.0274 18.0945 16.5231 18.1006C16.7669 18.0971 17.0077 18.0455 17.2314 17.9486C17.4552 17.8517 17.6576 17.7115 17.8269 17.536C17.9962 17.3606 18.1292 17.1533 18.218 16.9262C18.3069 16.6992 18.35 16.4567 18.3447 16.213C18.3456 15.9737 18.299 15.7365 18.2078 15.5153C18.1165 15.2941 17.9823 15.0932 17.8129 14.9241C17.6435 14.755 17.4424 14.6212 17.221 14.5303C16.9996 14.4395 16.7624 14.3933 16.5231 14.3947ZM16.5231 16.9225C16.3434 16.9107 16.1749 16.8307 16.0522 16.6988C15.9295 16.5669 15.8619 16.3931 15.8631 16.213C15.8683 16.0414 15.9401 15.8785 16.0633 15.759C16.1865 15.6395 16.3514 15.5727 16.5231 15.5728C16.6076 15.5705 16.6918 15.5855 16.7703 15.6169C16.8488 15.6483 16.9201 15.6954 16.9797 15.7554C17.0394 15.8153 17.0862 15.8869 17.1172 15.9655C17.1482 16.0442 17.1627 16.1284 17.16 16.213C17.1681 16.3917 17.1055 16.5664 16.9856 16.6992C16.8658 16.832 16.6984 16.9122 16.5198 16.9225H16.5231ZM20.2983 14.662L20.9055 13.672C20.9689 13.5602 20.992 13.4301 20.971 13.3034C20.95 13.1766 20.8861 13.061 20.79 12.9757L19.8 11.9659C19.7083 11.8697 19.586 11.8085 19.4541 11.7929C19.3222 11.7772 19.1889 11.808 19.0773 11.8801L18.0675 12.4543L17.7969 11.3092C17.7563 11.1891 17.6797 11.0845 17.5776 11.0096C17.4754 10.9346 17.3527 10.8929 17.226 10.8901H15.8103C15.6836 10.8867 15.5592 10.9244 15.4558 10.9976C15.3523 11.0708 15.2752 11.1754 15.2361 11.296L14.9325 12.4411L13.9227 11.8801C13.8105 11.8135 13.679 11.7874 13.5499 11.806C13.4208 11.8246 13.302 11.8868 13.2132 11.9824L12.21 12.9757C12.1169 13.0669 12.0589 13.188 12.0462 13.3178C12.0335 13.4475 12.067 13.5776 12.1407 13.6852L12.7149 14.6752L11.6358 14.9458C11.505 14.974 11.3872 15.0446 11.3007 15.1466C11.2142 15.2487 11.1637 15.3764 11.1573 15.5101V16.9588C11.1618 17.0931 11.2105 17.2221 11.2958 17.3259C11.3811 17.4298 11.4983 17.5025 11.6292 17.533L12.7083 17.8003L12.1341 18.7903C12.0683 18.8956 12.04 19.02 12.0538 19.1434C12.0676 19.2667 12.1226 19.3819 12.21 19.4701L13.2 20.4964C13.2895 20.5908 13.4085 20.6521 13.5374 20.6701C13.6663 20.6881 13.7975 20.6617 13.9095 20.5954L14.9193 20.0245L15.2229 21.1366C15.2609 21.2602 15.3368 21.3687 15.4398 21.4469C15.5428 21.5251 15.6678 21.5689 15.7971 21.5722H17.226C17.3531 21.5624 17.4746 21.5161 17.5759 21.4388C17.6772 21.3615 17.754 21.2565 17.7969 21.1366L18.0675 19.9882L19.0773 20.5954C19.1893 20.6617 19.3205 20.6881 19.4494 20.6701C19.5783 20.6521 19.6973 20.5908 19.7868 20.4964L20.79 19.4701C20.8875 19.3832 20.9512 19.2648 20.9699 19.1356C20.9886 19.0064 20.9611 18.8748 20.8923 18.7639L20.2851 17.7739L21.3972 17.5066C21.5245 17.4745 21.6371 17.4003 21.7168 17.296C21.7965 17.1918 21.8386 17.0636 21.8361 16.9324V15.5101C21.8331 15.3802 21.789 15.2547 21.7101 15.1515C21.6313 15.0483 21.5217 14.9728 21.3972 14.9359L20.2983 14.662ZM20.6646 16.5001L19.5855 16.7707C19.505 16.7911 19.4299 16.8288 19.3655 16.8813C19.3011 16.9337 19.2489 16.9996 19.2126 17.0743C19.1466 17.2063 19.1136 17.3416 19.0443 17.4769C19.0007 17.5675 18.9809 17.6678 18.9867 17.7682C18.9924 17.8687 19.0236 17.966 19.0773 18.0511L19.6515 18.9949L19.2819 19.3645L18.2919 18.7936C18.2104 18.7467 18.1193 18.719 18.0255 18.7128C17.9317 18.7065 17.8377 18.7217 17.7507 18.7573C17.6538 18.8114 17.5522 18.8567 17.4471 18.8926C17.3444 18.9183 17.2516 18.9736 17.18 19.0516C17.1084 19.1297 17.0613 19.2269 17.0445 19.3315L16.7409 20.4106H16.2459L15.9786 19.3315C15.947 19.2279 15.8905 19.1337 15.814 19.0572C15.7374 18.9807 15.6432 18.9241 15.5397 18.8926C15.5012 18.8904 15.4636 18.8805 15.429 18.8635C15.3944 18.8465 15.3636 18.8227 15.3384 18.7936C15.2479 18.7353 15.1425 18.7043 15.0348 18.7043C14.9271 18.7043 14.8217 18.7353 14.7312 18.7936L13.7181 19.3645L13.3881 18.9949L13.9623 18.0511C14.0111 17.9632 14.0368 17.8644 14.0368 17.764C14.0368 17.6635 14.0111 17.5647 13.9623 17.4769C13.893 17.3416 13.86 17.2063 13.794 17.0743C13.7577 16.9996 13.7055 16.9337 13.6411 16.8813C13.5767 16.8288 13.5016 16.7911 13.4211 16.7707L12.3354 16.5001V15.9787L13.4145 15.7081C13.495 15.6876 13.5701 15.6499 13.6345 15.5974C13.6989 15.545 13.7511 15.4791 13.7874 15.4045C13.8534 15.2692 13.8864 15.1339 13.9557 14.9986C14.0042 14.9112 14.0297 14.813 14.0297 14.7131C14.0297 14.6132 14.0042 14.515 13.9557 14.4277L13.3815 13.4839L13.7511 13.111L14.6949 13.6852C14.7947 13.7356 14.9049 13.7619 15.0167 13.7619C15.1284 13.7619 15.2387 13.7356 15.3384 13.6852C15.3634 13.6555 15.3941 13.6312 15.4287 13.6136C15.4633 13.5961 15.501 13.5856 15.5397 13.5829C15.6437 13.5532 15.7385 13.4977 15.8152 13.4216C15.892 13.3454 15.9482 13.251 15.9786 13.1473L16.2459 12.0682H16.7541L17.0577 13.1473C17.0747 13.2513 17.122 13.3481 17.1935 13.4256C17.2651 13.503 17.3579 13.5577 17.4603 13.5829C17.5642 13.6216 17.6656 13.6668 17.7639 13.7182C17.8559 13.7563 17.9553 13.7732 18.0548 13.7675C18.1542 13.7618 18.2511 13.7336 18.3381 13.6852L19.2819 13.111L19.6515 13.4839L19.0773 14.4277C19.0236 14.5121 18.9924 14.6089 18.9866 14.7088C18.9809 14.8087 19.0007 14.9085 19.0443 14.9986C19.1136 15.1339 19.1466 15.2692 19.2126 15.4045C19.2489 15.4791 19.3011 15.545 19.3655 15.5974C19.4299 15.6499 19.505 15.6876 19.5855 15.7081L20.6646 15.9787V16.5001ZM16.5165 5.56056C16.6729 5.5537 16.8204 5.48605 16.9277 5.37202C17.0349 5.25798 17.0934 5.10658 17.0907 4.95006V2.22426C17.0911 2.14873 17.0766 2.07387 17.0479 2.004C17.0192 1.93414 16.9769 1.87067 16.9235 1.81726C16.8701 1.76385 16.8066 1.72157 16.7368 1.69287C16.6669 1.66417 16.592 1.64962 16.5165 1.65006C16.4385 1.64604 16.3605 1.65789 16.2871 1.6849C16.2138 1.71191 16.1468 1.75352 16.09 1.8072C16.0332 1.86087 15.988 1.92551 15.9569 1.9972C15.9258 2.06889 15.9096 2.14613 15.9093 2.22426V4.95006C15.9093 5.1111 15.9733 5.26554 16.0871 5.37941C16.201 5.49328 16.3555 5.55726 16.5165 5.55726V5.56056ZM24.3375 9.13446C24.4169 9.13341 24.495 9.11482 24.5663 9.08001C24.6376 9.04521 24.7004 8.99506 24.75 8.93316L27.1095 6.57036C27.1647 6.51851 27.2088 6.45589 27.2389 6.38636C27.269 6.31683 27.2845 6.24187 27.2845 6.16611C27.2845 6.09034 27.269 6.01538 27.2389 5.94585C27.2088 5.87633 27.1647 5.8137 27.1095 5.76186C27.0543 5.70598 26.9885 5.66162 26.916 5.63135C26.8435 5.60107 26.7657 5.58549 26.6871 5.58549C26.6085 5.58549 26.5307 5.60107 26.4582 5.63135C26.3857 5.66162 26.3199 5.70598 26.2647 5.76186L23.9052 8.12136C23.8499 8.1735 23.8058 8.2364 23.7756 8.3062C23.7455 8.376 23.73 8.45123 23.73 8.52726C23.73 8.60329 23.7455 8.67851 23.7756 8.74831C23.8058 8.81812 23.8499 8.88102 23.9052 8.93316C23.9606 8.9951 24.0281 9.04494 24.1037 9.07958C24.1792 9.11422 24.261 9.1329 24.3441 9.13446H24.3375ZM8.0553 8.72856C8.11012 8.79141 8.1775 8.84209 8.25309 8.87733C8.32868 8.91257 8.41081 8.93159 8.4942 8.93316C8.57459 8.93342 8.65395 8.91508 8.72608 8.87959C8.79821 8.8441 8.86116 8.79241 8.91 8.72856C8.96613 8.67723 9.01095 8.61478 9.04161 8.54518C9.07228 8.47558 9.08812 8.40036 9.08812 8.32431C9.08812 8.24825 9.07228 8.17303 9.04161 8.10343C9.01095 8.03383 8.96613 7.97138 8.91 7.92006L6.7551 5.76186C6.69986 5.70598 6.63408 5.66162 6.56157 5.63135C6.48907 5.60107 6.41127 5.58549 6.3327 5.58549C6.25413 5.58549 6.17634 5.60107 6.10383 5.63135C6.03132 5.66162 5.96554 5.70598 5.9103 5.76186C5.85506 5.8137 5.81103 5.87633 5.78093 5.94585C5.75083 6.01538 5.7353 6.09034 5.7353 6.16611C5.7353 6.24187 5.75083 6.31683 5.78093 6.38636C5.81103 6.45589 5.85506 6.51851 5.9103 6.57036L8.0553 8.72856ZM17.1897 30.1786H15.84C15.1131 30.1778 14.4156 29.8911 13.8982 29.3805C13.3808 28.8699 13.085 28.1763 13.0746 27.4495C13.0746 26.8093 13.1439 26.2021 13.1769 25.5949H19.8528C19.8891 26.2021 19.9221 26.8093 19.9221 27.4495C19.9234 27.8085 19.8536 28.1642 19.7167 28.4962C19.5798 28.8281 19.3786 29.1296 19.1245 29.3833C18.8705 29.637 18.5687 29.8379 18.2366 29.9744C17.9046 30.1109 17.5487 30.1803 17.1897 30.1786ZM19.8528 24.4201H13.1802C12.9096 21.1498 9.1674 21.0145 9.1674 16.0249C9.1674 14.0801 9.93994 12.2151 11.3151 10.8399C12.6902 9.4648 14.5553 8.69226 16.5 8.69226C18.4447 8.69226 20.3098 9.4648 21.6849 10.8399C23.0601 12.2151 23.8326 14.0801 23.8326 16.0249C23.8326 21.0145 20.0904 21.1498 19.8528 24.4201Z" fill="white"/>
</svg>
