<svg width="42" height="42" viewBox="0 0 42 42" fill="none" xmlns="http://www.w3.org/2000/svg">
<circle cx="21" cy="21" r="21" fill="#0553B0"/>
<path d="M12.2749 20.3364L12.2758 20.3355L17.1744 15.4605C17.5414 15.0953 18.1349 15.0967 18.5002 15.4637C18.8655 15.8307 18.8641 16.4242 18.4971 16.7895L15.2082 20.0625H30C30.5178 20.0625 30.9375 20.4822 30.9375 21C30.9375 21.5178 30.5178 21.9375 30 21.9375H15.2082L18.4971 25.2105C18.864 25.5757 18.8654 26.1693 18.5002 26.5363C18.1349 26.9034 17.5413 26.9047 17.1743 26.5395L12.2757 21.6645L12.2749 21.6636C11.9077 21.2971 11.9089 20.7016 12.2749 20.3364Z" fill="white"/>
</svg>
