<svg width="42" height="42" viewBox="0 0 42 42" fill="none" xmlns="http://www.w3.org/2000/svg">
<circle cx="21" cy="21" r="21" fill="#0553B0"/>
<path d="M29.7251 20.3364L29.7242 20.3355L24.8256 15.4605C24.4586 15.0953 23.8651 15.0967 23.4998 15.4637C23.1345 15.8307 23.1359 16.4242 23.5029 16.7895L26.7918 20.0625H12C11.4822 20.0625 11.0625 20.4822 11.0625 21C11.0625 21.5178 11.4822 21.9375 12 21.9375H26.7918L23.5029 25.2105C23.136 25.5757 23.1346 26.1693 23.4998 26.5363C23.8651 26.9034 24.4587 26.9047 24.8257 26.5395L29.7243 21.6645L29.7251 21.6636C30.0923 21.2971 30.0911 20.7016 29.7251 20.3364Z" fill="white"/>
</svg>
